<?xml version="1.0" standalone="no"?>
<!DOCTYPE svg PUBLIC "-//W3C//DTD SVG 20010904//EN"
 "http://www.w3.org/TR/2001/REC-SVG-20010904/DTD/svg10.dtd">
<svg version="1.0" xmlns="http://www.w3.org/2000/svg"
 width="100.000000pt" height="100.000000pt" viewBox="0 0 100.000000 100.000000"
 preserveAspectRatio="xMidYMid meet">

<g transform="translate(0.000000,100.000000) scale(0.100000,-0.100000)"
fill="#000000" stroke="none">
<path d="M460 935 c-21 -23 -24 -23 -51 -10 -42 22 -58 18 -80 -19 -18 -31
-23 -34 -58 -29 -42 6 -50 -1 -60 -51 -5 -24 -13 -32 -37 -37 -50 -10 -57 -18
-51 -60 5 -35 2 -40 -29 -58 -37 -22 -41 -38 -19 -80 13 -27 13 -30 -10 -51
-31 -30 -31 -50 0 -80 23 -21 23 -24 10 -51 -22 -42 -18 -58 19 -80 31 -18 34
-23 29 -58 -6 -42 1 -50 51 -60 24 -5 32 -13 37 -40 9 -42 25 -53 66 -47 28 4
34 0 52 -30 22 -37 38 -41 80 -19 27 13 30 13 51 -10 30 -31 50 -31 80 0 21
23 24 23 51 10 42 -22 58 -18 80 19 18 30 24 34 52 30 41 -6 57 5 66 47 6 28
12 34 40 40 42 9 53 25 47 66 -4 28 0 34 30 52 37 22 41 38 19 80 -13 27 -13
30 10 51 14 13 25 31 25 40 0 9 -11 27 -25 40 -23 21 -23 24 -10 51 22 42 18
58 -19 80 -30 18 -34 24 -30 52 6 41 -5 57 -47 66 -27 5 -35 13 -40 37 -10 50
-18 57 -60 51 -35 -5 -40 -2 -58 29 -22 37 -38 41 -80 19 -27 -13 -30 -13 -51
10 -13 14 -31 25 -40 25 -9 0 -27 -11 -40 -25z m60 -34 c15 -28 45 -34 79 -17
29 15 29 15 51 -20 20 -35 23 -36 60 -30 38 6 40 5 40 -19 0 -32 33 -65 65
-65 24 0 25 -2 19 -40 -6 -37 -5 -40 30 -60 35 -21 35 -22 21 -50 -20 -39 -19
-47 11 -75 l27 -25 -27 -25 c-30 -28 -31 -36 -11 -75 14 -28 14 -29 -21 -50
-35 -20 -36 -23 -30 -60 6 -38 5 -40 -19 -40 -32 0 -65 -33 -65 -65 0 -24 -2
-25 -40 -19 -37 6 -40 5 -60 -30 -21 -35 -22 -35 -50 -21 -39 20 -47 19 -75
-11 l-25 -27 -25 27 c-28 30 -36 31 -75 11 -28 -14 -29 -14 -50 21 -20 35 -23
36 -60 30 -38 -6 -40 -5 -40 19 0 32 -33 65 -65 65 -24 0 -25 2 -19 40 6 37 5
40 -30 60 -35 21 -35 22 -21 50 20 39 19 45 -12 74 l-27 25 27 25 c31 29 32
37 12 76 -14 28 -14 29 21 50 35 20 36 23 30 60 -6 38 -5 40 19 40 32 0 65 33
65 65 0 24 2 25 40 19 37 -6 40 -5 60 30 22 35 22 35 51 20 34 -17 64 -11 79
17 6 10 15 19 20 19 5 0 14 -9 20 -19z"/>
<path d="M701 650 c-70 -32 -167 -107 -202 -155 l-33 -45 -25 24 c-39 36 -107
66 -164 73 l-52 6 64 -48 c35 -27 88 -81 118 -122 30 -41 60 -72 66 -70 7 2
30 35 52 74 56 98 106 162 176 227 33 31 57 56 52 56 -4 0 -28 -9 -52 -20z"/>
</g>
</svg>
